<svg width="20" height="18" viewBox="0 0 20 18" fill="none" xmlns="http://www.w3.org/2000/svg">
<path d="M15.3845 15.9232C15.3845 16.3481 15.5351 16.7105 15.8354 17.0108C16.1356 17.3113 16.4984 17.4617 16.9234 17.4617C17.3478 17.4617 17.7105 17.3113 18.0108 17.0108C18.3113 16.7105 18.4617 16.3481 18.4617 15.9232C18.4617 15.4984 18.3115 15.1359 18.0108 14.8354C17.7105 14.5351 17.3478 14.3848 16.9234 14.3848C16.4984 14.3848 16.1356 14.5351 15.8354 14.8354C15.5351 15.1359 15.3845 15.4984 15.3845 15.9232Z" fill="white"/>
<path d="M19.7715 2.30511C19.6192 2.15284 19.439 2.07668 19.2307 2.07668H4.79569C4.78756 2.02065 4.76955 1.91857 4.74151 1.77034C4.71347 1.62203 4.6915 1.5039 4.67546 1.41567C4.65933 1.32781 4.62944 1.22155 4.58528 1.09736C4.54121 0.973092 4.48913 0.874836 4.42906 0.802891C4.36907 0.730567 4.28896 0.668642 4.18877 0.616398C4.08866 0.564492 3.9744 0.538391 3.84626 0.538391H0.769378C0.56091 0.538391 0.380648 0.614672 0.228422 0.766729C0.0761548 0.918955 0 1.09934 0 1.30764C0 1.51594 0.0761548 1.69625 0.228422 1.84847C0.380774 2.00074 0.561078 2.07681 0.769378 2.07681H3.22102L5.34831 11.9688C5.33239 12.0008 5.25026 12.1529 5.10195 12.4254C4.95372 12.698 4.83556 12.9363 4.74749 13.1406C4.65938 13.3452 4.6153 13.5033 4.6153 13.6154C4.6153 13.8237 4.69145 14.0041 4.84364 14.1565C4.99607 14.3083 5.17629 14.3848 5.38464 14.3848H6.15385H16.9231H17.6918C17.9001 14.3848 18.0805 14.3084 18.2327 14.1565C18.385 14.0041 18.4611 13.8238 18.4611 13.6154C18.4611 13.4071 18.385 13.2267 18.2327 13.0746C18.0805 12.9224 17.9002 12.8461 17.6918 12.8461H6.63443C6.82682 12.4614 6.92297 12.2053 6.92297 12.077C6.92297 11.9967 6.91295 11.9085 6.89287 11.8125C6.87279 11.7166 6.84879 11.6103 6.82076 11.4939C6.79268 11.3781 6.77474 11.2919 6.76675 11.2357L19.3151 9.76941C19.5152 9.74521 19.6796 9.65937 19.8078 9.51093C19.936 9.36283 20 9.19259 20 9.00016V2.84619C19.9999 2.63789 19.9239 2.45758 19.7715 2.30511Z" fill="white"/>
<path d="M4.6153 15.9232C4.6153 16.3481 4.76546 16.7105 5.06599 17.0108C5.36661 17.3113 5.72903 17.4617 6.15384 17.4617C6.57839 17.4617 6.94102 17.3113 7.24143 17.0108C7.54197 16.7105 7.6923 16.3481 7.6923 15.9232C7.6923 15.4984 7.54209 15.1359 7.24143 14.8354C6.94098 14.5351 6.57839 14.3848 6.15384 14.3848C5.72907 14.3848 5.36644 14.5351 5.06599 14.8354C4.76563 15.1359 4.6153 15.4984 4.6153 15.9232Z" fill="white"/>
</svg>
