<svg width="30" height="30" viewBox="0 0 30 30" fill="none" xmlns="http://www.w3.org/2000/svg">
<circle cx="15" cy="15" r="15" fill="#EBEBEB"/>
<path d="M16.0625 21H13.2305V10.4336H16.0625V21ZM13.0645 7.69922C13.0645 7.27604 13.2044 6.92773 13.4844 6.6543C13.7708 6.38086 14.1582 6.24414 14.6465 6.24414C15.1283 6.24414 15.5124 6.38086 15.7988 6.6543C16.0853 6.92773 16.2285 7.27604 16.2285 7.69922C16.2285 8.12891 16.082 8.48047 15.7891 8.75391C15.5026 9.02734 15.1217 9.16406 14.6465 9.16406C14.1712 9.16406 13.7871 9.02734 13.4941 8.75391C13.2077 8.48047 13.0645 8.12891 13.0645 7.69922Z" fill="#565656"/>
</svg>
