<svg width="30" height="30" viewBox="0 0 30 30" fill="none" xmlns="http://www.w3.org/2000/svg">
<g clip-path="url(#clip0)">
<path d="M12.3423 14.1C12.9648 13.7868 13.4355 13.438 13.758 13.0611C14.3318 12.3823 14.615 11.4822 14.615 10.3665C14.615 9.28082 14.3318 8.35262 13.7655 7.57443C12.8204 6.30682 11.2209 5.65802 8.95949 5.62427H0V23.9126H8.35381C9.29514 23.9126 10.1671 23.832 10.9734 23.667C11.7797 23.5001 12.4773 23.1945 13.0679 22.7482C13.593 22.36 14.0318 21.8781 14.3806 21.3099C14.9319 20.4511 15.2075 19.4779 15.2075 18.3941C15.2075 17.344 14.9656 16.4495 14.4856 15.7145C13.9999 14.9794 13.2873 14.4412 12.3423 14.1ZM3.69593 8.80078H7.73126C8.61821 8.80078 9.34952 8.89641 9.92331 9.0858C10.5871 9.36145 10.919 9.92212 10.919 10.7772C10.919 11.5441 10.6659 12.0804 10.1652 12.3823C9.66079 12.6842 9.00636 12.8361 8.2038 12.8361H3.69593V8.80078ZM10.0771 20.4174C9.63079 20.633 9.00261 20.7399 8.19817 20.7399H3.69593V15.8626H8.26005C9.05512 15.8682 9.67392 15.9732 10.1165 16.1701C10.904 16.5264 11.2959 17.179 11.2959 18.1334C11.2959 19.2585 10.8909 20.0161 10.0771 20.4174Z" fill="#565656"/>
<path d="M27.1166 6.47729H19.1716V8.75373H27.1166V6.47729Z" fill="#565656"/>
<path d="M29.8768 15.4615C29.7118 14.402 29.348 13.47 28.7817 12.6656C28.161 11.7543 27.3735 11.0867 26.4153 10.6648C25.4608 10.241 24.3864 10.0291 23.19 10.031C21.1817 10.031 19.5503 10.6592 18.2884 11.9062C17.0301 13.1569 16.4001 14.9552 16.4001 17.2991C16.4001 19.7987 17.0958 21.6045 18.4946 22.7127C19.8879 23.8228 21.4968 24.3759 23.3232 24.3759C25.534 24.3759 27.2535 23.7178 28.4817 22.4051C29.2674 21.5763 29.7118 20.7606 29.8093 19.9599H26.149C25.9371 20.3556 25.6915 20.665 25.4102 20.89C24.9002 21.3026 24.2364 21.5088 23.4225 21.5088C22.6481 21.5088 21.9918 21.3382 21.4443 20.9988C20.5404 20.455 20.0679 19.5024 20.0079 18.1467H29.9968C30.0118 16.9785 29.9743 16.0803 29.8768 15.4615ZM20.0979 15.8121C20.2292 14.9327 20.5479 14.2351 21.0542 13.7194C21.5605 13.2057 22.2768 12.9469 23.1938 12.945C24.0395 12.945 24.7464 13.1869 25.3221 13.6726C25.8902 14.162 26.2109 14.8727 26.2765 15.8121H20.0979Z" fill="#565656"/>
</g>
<defs>
<clipPath id="clip0">
<rect width="30" height="30" fill="white"/>
</clipPath>
</defs>
</svg>
