<svg width="19" height="43" viewBox="0 0 19 43" fill="none" xmlns="http://www.w3.org/2000/svg">
<path d="M5.51074 5.03906C5.1879 6.74882 4.47849 8.38307 3.43196 9.77914C2.76663 10.6667 2.2125 11.6331 1.77814 12.6501H17.2218C16.7875 11.6331 16.2333 10.6668 15.568 9.77914C14.5215 8.38307 13.8121 6.74882 13.4893 5.03906H5.51074Z" fill="#686125"/>
<path d="M0.972563 15.1697C0.76025 16.1395 0.650146 17.1323 0.650146 18.128V38.2811C0.650146 40.8831 2.76706 43 5.36906 43H13.631C16.2329 43 18.3499 40.8831 18.3499 38.2811V18.128C18.3499 17.1323 18.2398 16.1395 18.0275 15.1697H0.972563Z" fill="#686125"/>
<path d="M13.1953 2.51953H13.2898V2.51474C13.9413 2.46629 14.4551 1.92358 14.4551 1.25977C14.4551 0.564039 13.891 0 13.1953 0H5.80469C5.10896 0 4.54492 0.564039 4.54492 1.25977C4.54492 1.92358 5.05874 2.46629 5.71021 2.51474V2.51953H5.80469H13.1953Z" fill="#686125"/>
</svg>
