<svg width="50" height="50" viewBox="0 0 50 50" fill="none" xmlns="http://www.w3.org/2000/svg">
<g clip-path="url(#clip0)">
<path d="M7.06017 12.4885L4.50035 10.6986C3.86557 11.6093 3.2916 12.561 2.78235 13.5474L5.55926 14.9811C6.00311 14.1175 6.50445 13.2848 7.06017 12.4885Z" fill="#FFB229"/>
<path d="M24.9961 46.8578C12.9141 46.8513 3.12487 37.0518 3.13122 24.9698C3.13259 22.4763 3.56013 20.0013 4.39561 17.6518L1.45471 16.6007C-3.17559 29.6064 3.61411 43.9033 16.6198 48.5335C19.3087 49.4908 22.1418 49.9805 24.996 49.9814C26.2723 49.9838 27.5466 49.8834 28.8068 49.6815L28.307 46.597C27.2122 46.7726 26.105 46.8597 24.9961 46.8578Z" fill="#FFB229"/>
<path d="M10.9913 8.20439L8.98747 5.80701C8.13619 6.51919 7.33273 7.28673 6.58228 8.10444L8.88283 10.2176C9.54055 9.5008 10.2448 8.82834 10.9913 8.20439Z" fill="#FFB229"/>
<path d="M43.4997 13.342C45.6962 16.8309 46.8616 20.8697 46.8615 24.9924V26.5542H49.9851V24.9924C49.9688 11.1981 38.7904 0.0196082 24.9961 0.00330672C20.2826 -0.00108589 15.6647 1.33173 11.6785 3.84694L13.3465 6.48797C23.5657 0.0540658 37.0658 3.12274 43.4997 13.342Z" fill="#FFB229"/>
<path d="M28.7663 26.5542H34.367V23.4306H28.7663L37.072 15.1248C37.82 16.0225 38.4669 16.9998 39.0009 18.0392L41.7918 16.6335C37.1754 7.36923 25.9228 3.60144 16.6585 8.21788C7.3942 12.8343 3.62632 24.0869 8.24286 33.3512C11.4096 39.7063 17.8958 43.7261 24.9962 43.7342H26.558V28.7626L30.1392 32.3439L32.3476 30.1354L28.7663 26.5542ZM12.8998 15.1045L21.2258 23.4306H9.45444C9.75157 20.3749 10.9509 17.4767 12.8998 15.1045ZM9.45756 26.5542H21.2258L12.9107 34.8693C10.9645 32.499 9.76299 29.6059 9.45756 26.5542ZM23.4343 40.5309C20.3826 40.2254 17.4895 39.0239 15.1191 37.0777L23.4343 28.7626V40.5309ZM23.4343 21.2222L15.1082 12.8961C17.4804 10.9473 20.3786 9.74797 23.4343 9.45074V21.2222ZM26.5579 9.48354C29.61 9.77199 32.508 10.9591 34.8855 12.8945L26.5579 21.2222V9.48354Z" fill="#FFB229"/>
<path d="M49.9851 40.6105C49.9851 35.1301 42.7477 23.8476 41.9231 22.5794L40.6143 20.5662L39.3054 22.5794C38.4808 23.8476 31.2434 35.1301 31.2434 40.6105C30.9591 45.5017 34.6937 49.6972 39.5848 49.9814C39.9276 50.0014 40.2714 50.0014 40.6143 49.9814C45.5054 50.2657 49.7009 46.5311 49.9851 41.64C50.0051 41.2972 50.0051 40.9534 49.9851 40.6105ZM41.6788 46.8578C41.3247 46.8908 40.9683 46.8908 40.6142 46.8578C37.4579 47.1518 34.6609 44.8314 34.3669 41.6752C34.3339 41.3211 34.3339 40.9647 34.3669 40.6105C34.3669 37.401 38.1356 30.4806 40.6142 26.3793C43.0943 30.479 46.8614 37.3979 46.8614 40.6105C47.1554 43.7668 44.8352 46.5638 41.6788 46.8578Z" fill="#FFB229"/>
<path d="M29.2735 36H25.3633V22C25.3633 21.7266 25.3087 21.4714 25.1993 21.2344C25.099 20.9974 24.9577 20.7923 24.7755 20.6191C24.6023 20.4368 24.3972 20.2956 24.1602 20.1953C23.9232 20.0951 23.668 20.0449 23.3946 20.0449C23.1212 20.0449 22.8659 20.0951 22.629 20.1953C22.392 20.2956 22.1824 20.4368 22.0001 20.6191C21.8269 20.7923 21.6902 20.9974 21.5899 21.2344C21.4896 21.4714 21.4395 21.7266 21.4395 22V36H17.5157V22C17.5157 21.7266 17.4656 21.4714 17.3653 21.2344C17.265 20.9974 17.1238 20.7923 16.9415 20.6191C16.7683 20.4368 16.5632 20.2956 16.3262 20.1953C16.0893 20.0951 15.834 20.0449 15.5606 20.0449C15.2872 20.0449 15.032 20.0951 14.795 20.1953C14.558 20.2956 14.3484 20.4368 14.1661 20.6191C13.9929 20.7923 13.8562 20.9974 13.7559 21.2344C13.6557 21.4714 13.6055 21.7266 13.6055 22V36H9.6817V22C9.6817 21.1888 9.83209 20.4277 10.1329 19.7168C10.4428 18.9967 10.862 18.3724 11.3907 17.8438C11.9284 17.306 12.5528 16.8867 13.2637 16.5859C13.9838 16.276 14.7494 16.1211 15.5606 16.1211C16.2898 16.1211 16.9916 16.2533 17.6661 16.5176C18.3406 16.7728 18.9467 17.1465 19.4844 17.6387C20.0222 17.1465 20.6238 16.7728 21.2891 16.5176C21.9636 16.2533 22.6654 16.1211 23.3946 16.1211C24.2058 16.1211 24.9669 16.276 25.6778 16.5859C26.3978 16.8867 27.0222 17.306 27.5508 17.8438C28.0886 18.3724 28.5079 18.9967 28.8087 19.7168C29.1186 20.4277 29.2735 21.1888 29.2735 22V36ZM41.045 28.166C41.045 29.2507 40.8399 30.2715 40.4297 31.2285C40.0196 32.1764 39.459 33.0059 38.7481 33.7168C38.0463 34.4186 37.2169 34.9746 36.2598 35.3848C35.3119 35.7949 34.2956 36 33.211 36C32.5547 36 31.8985 35.918 31.2422 35.7539V31.543C31.5339 31.7161 31.8484 31.8483 32.1856 31.9395C32.5228 32.0306 32.8646 32.0762 33.211 32.0762C33.7488 32.0762 34.2546 31.9759 34.7286 31.7754C35.2116 31.5658 35.6309 31.2832 35.9864 30.9277C36.3419 30.5723 36.6199 30.1576 36.8204 29.6836C37.03 29.2096 37.1348 28.7038 37.1348 28.166V16.3945H41.045V28.166Z" fill="white"/>
</g>
<defs>
<clipPath id="clip0">
<rect width="50" height="50" fill="white"/>
</clipPath>
</defs>
</svg>
