<svg width="50" height="50" viewBox="0 0 50 50" fill="none" xmlns="http://www.w3.org/2000/svg">
<g clip-path="url(#clip0)">
<path d="M7.06011 12.4886L4.50029 10.6987C3.86551 11.6095 3.29154 12.5611 2.78229 13.5475L5.5592 14.9812C6.00305 14.1176 6.50439 13.2849 7.06011 12.4886Z" fill="white"/>
<path d="M24.996 46.8579C12.914 46.8515 3.12481 37.0519 3.13116 24.9699C3.13253 22.4764 3.56007 20.0014 4.39555 17.6519L1.45465 16.6008C-3.17565 29.6066 3.61405 43.9034 16.6198 48.5336C19.3086 49.4909 22.1417 49.9807 24.9959 49.9815C26.2722 49.9839 27.5465 49.8835 28.8067 49.6817L28.307 46.5971C27.2121 46.7727 26.1049 46.8599 24.996 46.8579Z" fill="white"/>
<path d="M10.9912 8.20452L8.98741 5.80713C8.13612 6.51932 7.33267 7.28685 6.58221 8.10456L8.88277 10.2177C9.54049 9.50092 10.2448 8.82846 10.9912 8.20452Z" fill="white"/>
<path d="M43.4996 13.3421C45.6961 16.831 46.8616 20.8698 46.8615 24.9925V26.5543H49.9851V24.9925C49.9688 11.1982 38.7904 0.0197302 24.996 0.00342879C20.2826 -0.000963817 15.6647 1.33185 11.6784 3.84706L13.3464 6.48809C23.5657 0.0541878 37.0657 3.12286 43.4996 13.3421Z" fill="white"/>
<path d="M28.7662 26.5543H34.3669V23.4307H28.7662L37.072 15.1249C37.82 16.0226 38.4669 16.9999 39.0008 18.0393L41.7918 16.6336C37.1754 7.36932 25.9228 3.60154 16.6584 8.21797C7.39414 12.8344 3.62626 24.087 8.2428 33.3513C11.4096 39.7063 17.8957 43.7262 24.9961 43.7343H26.5579V28.7627L30.1392 32.3439L32.3476 30.1355L28.7662 26.5543ZM12.8997 15.1046L21.2258 23.4307H9.45437C9.75151 20.375 10.9508 17.4768 12.8997 15.1046ZM9.4575 26.5543H21.2258L12.9107 34.8694C10.9645 32.4991 9.76293 29.606 9.4575 26.5543ZM23.4342 40.531C20.3825 40.2255 17.4894 39.024 15.1191 37.0778L23.4342 28.7627V40.531ZM23.4342 21.2222L15.1082 12.8962C17.4804 10.9473 20.3785 9.74806 23.4342 9.45083V21.2222ZM26.5578 9.48363C29.6099 9.77208 32.508 10.9592 34.8854 12.8946L26.5578 21.2222V9.48363Z" fill="white"/>
<path d="M49.9851 40.6108C49.9851 35.1303 42.7476 23.8478 41.923 22.5796L40.6142 20.5664L39.3054 22.5796C38.4807 23.8478 31.2433 35.1303 31.2433 40.6108C30.959 45.5019 34.6936 49.6974 39.5848 49.9817C39.9276 50.0016 40.2714 50.0016 40.6142 49.9817C45.5053 50.2659 49.7008 46.5313 49.9851 41.6402C50.005 41.2974 50.005 40.9536 49.9851 40.6108ZM41.6788 46.858C41.3246 46.891 40.9682 46.891 40.6141 46.858C37.4579 47.152 34.6608 44.8317 34.3668 41.6754C34.3338 41.3213 34.3338 40.9649 34.3668 40.6108C34.3668 37.4012 38.1355 30.4808 40.6141 26.3795C43.0943 30.4793 46.8614 37.3981 46.8614 40.6108C47.1554 43.767 44.8351 46.564 41.6788 46.858Z" fill="white"/>
<path d="M29.2734 36H25.3633V22C25.3633 21.7266 25.3086 21.4714 25.1992 21.2344C25.099 20.9974 24.9577 20.7923 24.7754 20.6191C24.6022 20.4368 24.3971 20.2956 24.1602 20.1953C23.9232 20.0951 23.668 20.0449 23.3945 20.0449C23.1211 20.0449 22.8659 20.0951 22.6289 20.1953C22.3919 20.2956 22.1823 20.4368 22 20.6191C21.8268 20.7923 21.6901 20.9974 21.5898 21.2344C21.4896 21.4714 21.4395 21.7266 21.4395 22V36H17.5156V22C17.5156 21.7266 17.4655 21.4714 17.3652 21.2344C17.265 20.9974 17.1237 20.7923 16.9414 20.6191C16.7682 20.4368 16.5632 20.2956 16.3262 20.1953C16.0892 20.0951 15.834 20.0449 15.5605 20.0449C15.2871 20.0449 15.0319 20.0951 14.7949 20.1953C14.5579 20.2956 14.3483 20.4368 14.166 20.6191C13.9928 20.7923 13.8561 20.9974 13.7559 21.2344C13.6556 21.4714 13.6055 21.7266 13.6055 22V36H9.68164V22C9.68164 21.1888 9.83203 20.4277 10.1328 19.7168C10.4427 18.9967 10.862 18.3724 11.3906 17.8438C11.9284 17.306 12.5527 16.8867 13.2637 16.5859C13.9837 16.276 14.7493 16.1211 15.5605 16.1211C16.2897 16.1211 16.9915 16.2533 17.666 16.5176C18.3405 16.7728 18.9466 17.1465 19.4844 17.6387C20.0221 17.1465 20.6237 16.7728 21.2891 16.5176C21.9635 16.2533 22.6654 16.1211 23.3945 16.1211C24.2057 16.1211 24.9668 16.276 25.6777 16.5859C26.3978 16.8867 27.0221 17.306 27.5508 17.8438C28.0885 18.3724 28.5078 18.9967 28.8086 19.7168C29.1185 20.4277 29.2734 21.1888 29.2734 22V36ZM41.0449 28.166C41.0449 29.2507 40.8398 30.2715 40.4297 31.2285C40.0195 32.1764 39.459 33.0059 38.748 33.7168C38.0462 34.4186 37.2168 34.9746 36.2598 35.3848C35.3118 35.7949 34.2956 36 33.2109 36C32.5547 36 31.8984 35.918 31.2422 35.7539V31.543C31.5339 31.7161 31.8483 31.8483 32.1855 31.9395C32.5228 32.0306 32.8646 32.0762 33.2109 32.0762C33.7487 32.0762 34.2546 31.9759 34.7285 31.7754C35.2116 31.5658 35.6309 31.2832 35.9863 30.9277C36.3418 30.5723 36.6198 30.1576 36.8203 29.6836C37.0299 29.2096 37.1348 28.7038 37.1348 28.166V16.3945H41.0449V28.166Z" fill="black"/>
</g>
<defs>
<clipPath id="clip0">
<rect width="50" height="50" fill="white"/>
</clipPath>
</defs>
</svg>
