<svg width="121" height="24" viewBox="0 0 121 24" fill="none" xmlns="http://www.w3.org/2000/svg">
<path d="M22.5527 23H18.2236V7.5C18.2236 7.19727 18.1631 6.91471 18.042 6.65234C17.931 6.38997 17.7746 6.16292 17.5728 5.97119C17.381 5.76937 17.154 5.61296 16.8916 5.50195C16.6292 5.39095 16.3467 5.33545 16.0439 5.33545C15.7412 5.33545 15.4587 5.39095 15.1963 5.50195C14.9339 5.61296 14.7018 5.76937 14.5 5.97119C14.3083 6.16292 14.1569 6.38997 14.0459 6.65234C13.9349 6.91471 13.8794 7.19727 13.8794 7.5V23H9.53516V7.5C9.53516 7.19727 9.47965 6.91471 9.36865 6.65234C9.25765 6.38997 9.10124 6.16292 8.89941 5.97119C8.70768 5.76937 8.48063 5.61296 8.21826 5.50195C7.95589 5.39095 7.67334 5.33545 7.37061 5.33545C7.06787 5.33545 6.78532 5.39095 6.52295 5.50195C6.26058 5.61296 6.02848 5.76937 5.82666 5.97119C5.63493 6.16292 5.48356 6.38997 5.37256 6.65234C5.26156 6.91471 5.20605 7.19727 5.20605 7.5V23H0.861816V7.5C0.861816 6.60189 1.02832 5.75928 1.36133 4.97217C1.70443 4.17497 2.16862 3.48372 2.75391 2.89844C3.34928 2.30306 4.04053 1.83887 4.82764 1.50586C5.62484 1.16276 6.47249 0.991211 7.37061 0.991211C8.1779 0.991211 8.95492 1.13753 9.70166 1.43018C10.4484 1.71273 11.1195 2.12646 11.7148 2.67139C12.3102 2.12646 12.9762 1.71273 13.7129 1.43018C14.4596 1.13753 15.2367 0.991211 16.0439 0.991211C16.9421 0.991211 17.7847 1.16276 18.5718 1.50586C19.369 1.83887 20.0602 2.30306 20.6455 2.89844C21.2409 3.48372 21.7051 4.17497 22.0381 4.97217C22.3812 5.75928 22.5527 6.60189 22.5527 7.5V23ZM36.0547 23H31.7256V16.2036C30.7669 15.9614 29.884 15.5729 29.0767 15.0381C28.2795 14.5033 27.5933 13.8675 27.0181 13.1309C26.4429 12.3841 25.9938 11.5617 25.6709 10.6636C25.3581 9.75537 25.2017 8.80176 25.2017 7.80273V1.29395H29.5459V7.80273C29.5459 8.39811 29.6569 8.96322 29.8789 9.49805C30.111 10.0228 30.4238 10.4819 30.8174 10.8755C31.2109 11.269 31.6701 11.5819 32.1948 11.814C32.7297 12.036 33.2948 12.147 33.8901 12.147C34.4855 12.147 35.0456 12.036 35.5703 11.814C36.1051 11.5819 36.5693 11.269 36.9629 10.8755C37.3564 10.4819 37.6642 10.0228 37.8862 9.49805C38.1183 8.96322 38.2344 8.39811 38.2344 7.80273V1.29395H42.5635V7.80273C42.5635 8.80176 42.402 9.75537 42.0791 10.6636C41.7663 11.5617 41.3223 12.3841 40.7471 13.1309C40.1719 13.8675 39.4857 14.5033 38.6885 15.0381C37.8913 15.5729 37.0133 15.9614 36.0547 16.2036V23ZM52.7505 14.3267C52.7505 15.5275 52.5234 16.6577 52.0693 17.7173C51.6152 18.7668 50.9946 19.6851 50.2075 20.4722C49.4305 21.2492 48.5122 21.8647 47.4526 22.3188C46.4032 22.7729 45.278 23 44.0771 23C43.3506 23 42.624 22.9092 41.8975 22.7275V18.0654C42.2204 18.2572 42.5685 18.4035 42.9419 18.5044C43.3153 18.6053 43.6937 18.6558 44.0771 18.6558C44.6725 18.6558 45.2326 18.5448 45.7573 18.3228C46.2922 18.0907 46.7563 17.7778 47.1499 17.3843C47.5435 16.9907 47.8512 16.5316 48.0732 16.0068C48.3053 15.4821 48.4214 14.922 48.4214 14.3267V1.29395H52.7505V14.3267ZM73.6543 14.3267C73.6543 15.5275 73.4272 16.6577 72.9731 17.7173C72.519 18.7668 71.8984 19.6851 71.1113 20.4722C70.3242 21.2492 69.4009 21.8647 68.3413 22.3188C67.2918 22.7729 66.1667 23 64.9658 23C63.765 23 62.6348 22.7729 61.5752 22.3188C60.5257 21.8647 59.6074 21.2492 58.8203 20.4722C58.0433 19.6851 57.4277 18.7668 56.9736 17.7173C56.5195 16.6577 56.2925 15.5275 56.2925 14.3267V1.29395H60.6216V14.3267C60.6216 14.922 60.7326 15.4821 60.9546 16.0068C61.1867 16.5316 61.4995 16.9907 61.8931 17.3843C62.2866 17.7778 62.7458 18.0907 63.2705 18.3228C63.8053 18.5448 64.3704 18.6558 64.9658 18.6558C65.5612 18.6558 66.1213 18.5448 66.646 18.3228C67.1808 18.0907 67.645 17.7778 68.0386 17.3843C68.4321 16.9907 68.7399 16.5316 68.9619 16.0068C69.194 15.4821 69.3101 14.922 69.3101 14.3267V1.29395H73.6543V14.3267ZM81.7676 23H77.4233V1.29395H81.7676V23ZM103.141 20.7749C102.132 21.6427 101.001 22.3088 99.75 22.7729C98.4987 23.2371 97.202 23.4692 95.8599 23.4692C94.8306 23.4692 93.8366 23.333 92.8779 23.0605C91.9294 22.7982 91.0363 22.4248 90.1987 21.9404C89.3713 21.446 88.6144 20.8556 87.9282 20.1694C87.242 19.4832 86.6517 18.7264 86.1572 17.8989C85.6729 17.0614 85.2944 16.1683 85.022 15.2197C84.7596 14.2611 84.6284 13.2671 84.6284 12.2378C84.6284 11.2085 84.7596 10.2145 85.022 9.25586C85.2944 8.2972 85.6729 7.40413 86.1572 6.57666C86.6517 5.7391 87.242 4.97721 87.9282 4.29102C88.6144 3.60482 89.3713 3.01953 90.1987 2.53516C91.0363 2.04069 91.9294 1.66227 92.8779 1.3999C93.8366 1.12744 94.8306 0.991211 95.8599 0.991211C97.202 0.991211 98.4987 1.22331 99.75 1.6875C101.001 2.1416 102.132 2.80762 103.141 3.68555L100.84 7.46973C100.204 6.78353 99.4523 6.25879 98.5845 5.89551C97.7166 5.52214 96.8084 5.33545 95.8599 5.33545C94.9012 5.33545 94.0031 5.51709 93.1655 5.88037C92.328 6.24365 91.5964 6.73812 90.9707 7.36377C90.3451 7.97933 89.8506 8.71094 89.4873 9.55859C89.124 10.3962 88.9424 11.2892 88.9424 12.2378C88.9424 13.1864 89.124 14.0794 89.4873 14.917C89.8506 15.7445 90.3451 16.471 90.9707 17.0967C91.5964 17.7223 92.328 18.2168 93.1655 18.5801C94.0031 18.9434 94.9012 19.125 95.8599 19.125C96.8084 19.125 97.7166 18.9434 98.5845 18.5801C99.4523 18.2067 100.204 17.6769 100.84 16.9907L103.141 20.7749ZM120.548 23H105.668V1.29395H120.548V5.63818H110.013V9.98242H117.142V14.3267H110.013V18.6558H120.548V23Z" fill="white"/>
</svg>
