<svg width="43" height="43" viewBox="0 0 43 43" fill="none" xmlns="http://www.w3.org/2000/svg">
<path d="M42.9258 0.603955C42.7753 0.238485 42.4176 0 42.0228 0C4.09484 0 0 15.7185 0 22.4773C0 24.9087 0.539455 27.1799 1.60471 29.2263C1.7689 29.5429 2.09332 29.7442 2.44908 29.7521C2.78523 29.7423 3.13906 29.5743 3.3169 29.2635C5.87738 24.8384 13.1287 13.9163 25.1043 8.11335C25.5949 7.87881 26.1812 8.0801 26.4138 8.56293C26.6483 9.04961 26.445 9.63598 25.9604 9.87052C25.0574 10.3084 24.1895 10.7852 23.3393 11.2797C23.0149 11.4693 22.7002 11.6707 22.3816 11.868C21.9027 12.1651 21.4298 12.468 20.9685 12.7808C20.5092 13.0897 20.0557 13.4063 19.61 13.7307C19.4712 13.8323 19.3384 13.9359 19.2015 14.0396C7.28264 22.921 0 37.0894 0 42.0228C0 42.5622 0.437849 43.0001 0.977304 43.0001C1.51676 43.0001 1.95461 42.5622 1.95461 42.0228C1.95461 40.4474 3.02765 37.2537 5.0584 33.4443C8.00589 35.8542 11.9716 37.1365 16.6137 37.1365C29.1638 37.1365 31.7928 25.1941 33.2039 18.7774C35.1037 10.1422 39.2845 5.09752 42.7128 1.66729C42.9942 1.38776 43.0763 0.969425 42.9258 0.603955Z" fill="#29652B"/>
</svg>
