<svg width="3735" height="2326" viewBox="0 0 3735 2326" fill="none" xmlns="http://www.w3.org/2000/svg">
<path d="M1966.39 6.11L1964.35 2.04C1963.34 1.03 1962.32 0 1960.29 0L1956.21 1.03C1954.18 3.06 1953.16 4.08 1953.16 6.11L1866.64 1572.46L1879.88 1570.42L1963.34 46.72L2063.09 210.6H2062.07C2137.39 432.48 2168.94 668.62 2156.73 919.01L2162.84 928.17L2261.57 1103.23L2267.67 1109.34C2419.33 1242.68 2589.3 1332.25 2777.61 1378.05L2823.41 1452.36L2829.52 1454.39L2830.54 1452.36L1964.35 35.53L1966.39 6.01" fill="#CCCCCC"/>
<path d="M1935.86 558.79C2042.73 777.63 2081.4 1108.42 2052.91 1551.18L2469.2 1500.29L1935.86 558.79Z" fill="#CCCCCC"/>
<path d="M2884.48 1520.64C2927.22 1515.56 2954.7 1506.4 2966.92 1493.17L788.76 1758.82H787.74C788.76 1849.41 829.47 1920.66 908.86 1971.55C930.23 1986.82 952.63 1998.01 972.98 2005.14C992.32 1982.75 1013.7 1966.46 1039.15 1951.19H1040.16C1268.16 1812.77 1607.1 1791.39 2054.94 1886.05L2060.03 1887.06C2108.89 1897.24 2157.74 1909.46 2203.55 1923.71C2216.77 1925.74 2227.97 1921.67 2237.13 1913.53C2253.42 1901.31 2273.78 1892.15 2301.26 1886.05V1885.03C2373.53 1756.78 2471.23 1662.13 2593.38 1600.04C2677.86 1558.31 2775.57 1530.82 2884.48 1520.64" fill="#CCCCCC"/>
<path d="M1838.15 1560.35L1937.89 31.5601C1793.36 589.33 1561.29 1110.46 1242.71 1593.93L1838.15 1560.35" fill="#CCCCCC"/>
<path d="M1277.32 328.77L1273.25 326.73L1269.18 327.75L1267.14 332.83L1184.7 1656.02L1196.91 1655L1279.36 332.83L1277.32 328.77" fill="#CCCCCC"/>
<path d="M1161.29 1627.52L1248.82 336.91L787.74 1667.22L1161.29 1627.52" fill="#CCCCCC"/>
<path d="M56.2984 1957.3H191.213C231.751 1957.3 261.518 1968.84 280.516 1991.91C299.507 2014.99 305.669 2047.15 299.001 2088.4C296.267 2105.32 291.389 2120.85 284.364 2134.99C277.336 2149.14 268.055 2162.06 256.518 2173.75C242.8 2187.82 227.444 2197.9 210.44 2203.98C193.437 2210.06 171.691 2213.1 145.21 2213.1H85.1164L70.1645 2305.62H0L56.2984 1957.3V1957.3ZM117.551 2012.4L93.9376 2158.51H136.613C164.9 2158.51 185.865 2152.73 199.514 2141.17C213.152 2129.6 222.148 2110.36 226.502 2083.43C230.699 2057.46 228.259 2039.14 219.203 2028.44C210.139 2017.75 192.282 2012.4 165.625 2012.4H117.551Z" fill="#6C78AF"/>
<path d="M377.77 1864.78H447.405L432.453 1957.3H494.403C533.393 1957.3 560.415 1964.69 575.479 1979.46C590.548 1994.23 595.431 2018.04 590.121 2050.89L563.901 2213.11H493.211L518.165 2058.72C521.007 2041.16 519.63 2029.23 514.041 2022.9C508.452 2016.58 496.757 2013.41 478.972 2013.41H423.393L391.119 2213.11H321.472L377.77 1864.78" fill="#6C78AF"/>
<path d="M665.966 1957.3H800.879C841.426 1957.3 871.184 1968.84 890.182 1991.91C909.177 2014.99 915.337 2047.15 908.672 2088.4C905.938 2105.32 901.057 2120.85 894.039 2134.99C887.006 2149.14 877.717 2162.06 866.188 2173.75C852.466 2187.82 837.112 2197.9 820.107 2203.98C803.107 2210.06 781.363 2213.1 754.872 2213.1H694.788L679.836 2305.62H609.675L665.966 1957.3V1957.3ZM727.226 2012.4L703.613 2158.51H746.288C774.575 2158.51 795.536 2152.73 809.177 2141.17C822.818 2129.6 831.819 2110.36 836.173 2083.43C840.367 2057.46 837.93 2039.14 828.869 2028.44C819.806 2017.75 801.948 2012.4 775.301 2012.4H727.226Z" fill="#6C78AF"/>
<path d="M1027.28 1790.76H1162.22L1221.51 2114.63L1385.48 1790.76H1519.91L1451.71 2212.82H1361.61L1422.18 1884.07L1256.84 2212.82H1159.21L1097.12 1880.63L1052.65 2212.82H959.065L1027.28 1790.76" fill="#F89C0E"/>
<path d="M1681.86 2144.52H1749.99L1789.04 1902.86H1873.73L1824.99 2204.49C1818.37 2245.5 1803.54 2275.88 1780.54 2295.62C1757.53 2315.35 1725.61 2325.22 1684.78 2325.22H1518.71L1528.86 2262.43H1680.36C1696.61 2262.43 1709.72 2258.63 1719.68 2251.04C1729.62 2243.44 1735.78 2232.43 1738.11 2218.01L1738.95 2212.82H1663.99C1616.03 2212.82 1583.33 2203.68 1565.89 2185.39C1548.44 2167.11 1543.18 2136.63 1550.06 2093.94L1580.95 1902.86H1664.69L1634.83 2087.62C1631.05 2111 1632.19 2126.32 1638.26 2133.6C1644.33 2140.88 1658.86 2144.52 1681.86 2144.52" fill="#F89C0E"/>
<path d="M2101.83 1790.76H2199.35L2317.54 2212.82H2215.27L2191.36 2112.36H2001.4L1946.22 2212.82H1848.69L2101.83 1790.76V1790.76ZM2133.48 1874.57L2043.3 2037.01H2173.52L2133.48 1874.57Z" fill="#F89C0E"/>
<path d="M2636.83 2212.82H2474.14C2424.97 2212.82 2388.87 2198.84 2365.82 2170.88C2342.78 2142.92 2335.31 2103.94 2343.38 2053.96C2346.7 2033.47 2352.61 2014.65 2361.14 1997.52C2369.66 1980.37 2380.91 1964.72 2394.9 1950.54C2411.52 1933.5 2430.2 1921.29 2450.93 1913.92C2471.65 1906.55 2497.97 1902.86 2529.88 1902.86H2602.55L2620.66 1790.76H2705.05L2636.83 2212.82V2212.82ZM2563.19 2146.35L2591.76 1969.63H2540.54C2506.19 1969.63 2480.7 1976.58 2464.05 1990.46C2447.43 2004.35 2436.48 2027.49 2431.25 2059.86C2426.17 2091.28 2429.17 2113.55 2440.26 2126.67C2451.34 2139.79 2472.96 2146.35 2505.12 2146.35H2563.19" fill="#F89C0E"/>
<path d="M2760.55 1902.86H3085.78C3132.94 1902.86 3165.49 1911.77 3183.41 1929.56C3201.32 1947.36 3207.06 1976.26 3200.6 2016.26L3168.83 2212.82H3083.5L3113.54 2026.89C3117.23 2004.1 3116.1 1989.06 3110.16 1981.78C3104.19 1974.5 3090.14 1970.85 3067.98 1970.85H3020.47L2981.36 2212.82H2894.76L2933.86 1970.85H2834.89L2795.78 2212.82H2710.45L2760.55 1902.86" fill="#F89C0E"/>
<path d="M3389.18 1867.64H3300.36L3312.78 1790.76H3401.6L3389.18 1867.64ZM3333.39 2212.82H3244.57L3294.66 1902.86H3383.48L3333.39 2212.82" fill="#F89C0E"/>
<path d="M3456.74 1902.86H3616.09C3664.25 1902.86 3697.23 1911.62 3715 1929.13C3732.78 1946.65 3738.4 1975.69 3731.84 2016.26L3700.08 2212.82H3615.37L3645.53 2026.32C3649.27 2003.13 3647.98 1988.1 3641.65 1981.21C3635.33 1974.31 3620.96 1970.85 3598.57 1970.85H3530.45L3491.34 2212.82H3406.65L3456.74 1902.86" fill="#F89C0E"/>
</svg>
