<svg width="43" height="43" viewBox="0 0 43 43" fill="none" xmlns="http://www.w3.org/2000/svg">
<path d="M30.5366 26.4123C30.1514 26.0673 29.5597 26.101 29.2166 26.4852C27.2667 28.6641 24.4549 29.913 21.5 29.913C18.5461 29.913 15.7333 28.6641 13.7834 26.4852C13.4384 26.101 12.8486 26.0673 12.4634 26.4123C12.0783 26.7563 12.0465 27.347 12.3905 27.7322C14.6948 30.3066 18.0151 31.7826 21.5 31.7826C24.9858 31.7826 28.3062 30.3056 30.6095 27.7322C30.9535 27.347 30.9207 26.7563 30.5366 26.4123Z" fill="#632727"/>
<path d="M21.5 0C9.64509 0 0 9.64509 0 21.5C0 33.3549 9.64509 43 21.5 43C33.3549 43 43 33.3549 43 21.5C43 9.64509 33.3549 0 21.5 0ZM21.5 41.1304C10.6752 41.1304 1.86957 32.3248 1.86957 21.5C1.86957 10.6752 10.6752 1.86957 21.5 1.86957C32.3248 1.86957 41.1304 10.6752 41.1304 21.5C41.1304 32.3248 32.3248 41.1304 21.5 41.1304Z" fill="#632727"/>
<path d="M28.9783 14.9565C26.4011 14.9565 24.3044 17.0533 24.3044 19.6305C24.3044 20.1465 24.7231 20.5652 25.2391 20.5652C25.7551 20.5652 26.1739 20.1465 26.1739 19.6305C26.1739 18.0843 27.4321 16.8261 28.9783 16.8261C30.5244 16.8261 31.7826 18.0843 31.7826 19.6305C31.7826 20.1465 32.2014 20.5652 32.7174 20.5652C33.2334 20.5652 33.6522 20.1465 33.6522 19.6305C33.6522 17.0533 31.5555 14.9565 28.9783 14.9565Z" fill="#632727"/>
<path d="M16.8261 19.6305C16.8261 20.1465 17.2449 20.5652 17.7609 20.5652C18.2769 20.5652 18.6957 20.1465 18.6957 19.6305C18.6957 17.0533 16.5989 14.9565 14.0218 14.9565C11.4446 14.9565 9.34784 17.0533 9.34784 19.6305C9.34784 20.1465 9.76662 20.5652 10.2826 20.5652C10.7986 20.5652 11.2174 20.1465 11.2174 19.6305C11.2174 18.0843 12.4756 16.8261 14.0218 16.8261C15.5679 16.8261 16.8261 18.0843 16.8261 19.6305Z" fill="#632727"/>
</svg>
